<mxfile host="app.diagrams.net" modified="2023-11-29T08:57:09.733Z" agent="Mozilla/5.0 (X11; Ubuntu; Linux x86_64; rv:109.0) Gecko/20100101 Firefox/111.0" etag="MWe3iIb7HRCu6ElVg69-" version="22.1.4" type="device">
  <diagram name="Page-1" id="2YBvvXClWsGukQMizWep">
    <mxGraphModel dx="2764" dy="1071" grid="1" gridSize="10" guides="1" tooltips="1" connect="1" arrows="1" fold="1" page="1" pageScale="1" pageWidth="850" pageHeight="1100" math="0" shadow="0">
      <root>
        <mxCell id="0" />
        <mxCell id="1" parent="0" />
        <mxCell id="TvbK7awDwAVhztgvTPOD-2" value="" style="endArrow=none;html=1;rounded=0;" parent="1" edge="1">
          <mxGeometry width="50" height="50" relative="1" as="geometry">
            <mxPoint x="360" y="360" as="sourcePoint" />
            <mxPoint x="360" y="80" as="targetPoint" />
          </mxGeometry>
        </mxCell>
        <mxCell id="TvbK7awDwAVhztgvTPOD-3" value="" style="endArrow=none;html=1;rounded=0;" parent="1" edge="1">
          <mxGeometry width="50" height="50" relative="1" as="geometry">
            <mxPoint x="480" y="360" as="sourcePoint" />
            <mxPoint x="480" y="80" as="targetPoint" />
          </mxGeometry>
        </mxCell>
        <mxCell id="TvbK7awDwAVhztgvTPOD-5" value="(enforce-offer)" style="endArrow=classic;html=1;rounded=0;" parent="1" edge="1">
          <mxGeometry y="10" width="50" height="50" relative="1" as="geometry">
            <mxPoint x="200" y="160" as="sourcePoint" />
            <mxPoint x="360" y="160" as="targetPoint" />
            <mxPoint as="offset" />
          </mxGeometry>
        </mxCell>
        <mxCell id="TvbK7awDwAVhztgvTPOD-6" value="(enforce-offer)" style="endArrow=classic;html=1;rounded=0;" parent="1" edge="1">
          <mxGeometry x="0.0714" y="10" width="50" height="50" relative="1" as="geometry">
            <mxPoint x="200" y="200" as="sourcePoint" />
            <mxPoint x="480" y="200" as="targetPoint" />
            <mxPoint as="offset" />
          </mxGeometry>
        </mxCell>
        <mxCell id="TvbK7awDwAVhztgvTPOD-8" value="" style="shape=umlActor;verticalLabelPosition=bottom;verticalAlign=top;html=1;outlineConnect=0;" parent="1" vertex="1">
          <mxGeometry x="-10" y="110" width="30" height="60" as="geometry" />
        </mxCell>
        <mxCell id="TvbK7awDwAVhztgvTPOD-12" value="ledger" style="rounded=0;whiteSpace=wrap;html=1;" parent="1" vertex="1">
          <mxGeometry x="150" y="50" width="100" height="30" as="geometry" />
        </mxCell>
        <mxCell id="TvbK7awDwAVhztgvTPOD-14" value="policy-A" style="rounded=0;whiteSpace=wrap;html=1;" parent="1" vertex="1">
          <mxGeometry x="310" y="50" width="100" height="30" as="geometry" />
        </mxCell>
        <mxCell id="TvbK7awDwAVhztgvTPOD-15" value="policy-B" style="rounded=0;whiteSpace=wrap;html=1;" parent="1" vertex="1">
          <mxGeometry x="430" y="50" width="100" height="30" as="geometry" />
        </mxCell>
        <mxCell id="TvbK7awDwAVhztgvTPOD-1" value="" style="endArrow=none;html=1;rounded=0;" parent="1" edge="1">
          <mxGeometry width="50" height="50" relative="1" as="geometry">
            <mxPoint x="200" y="360" as="sourcePoint" />
            <mxPoint x="200" y="80" as="targetPoint" />
          </mxGeometry>
        </mxCell>
        <mxCell id="TvbK7awDwAVhztgvTPOD-17" value="" style="rounded=0;whiteSpace=wrap;html=1;" parent="1" vertex="1">
          <mxGeometry x="195" y="140" width="10" height="160" as="geometry" />
        </mxCell>
        <mxCell id="IsEB4-VOODBlKY21gOqv-1" value="&lt;font style=&quot;font-size: 8px;&quot;&gt;Include message in transaction data&lt;br&gt;&lt;/font&gt;" style="shape=callout;whiteSpace=wrap;html=1;perimeter=calloutPerimeter;position2=0.57;base=15;" parent="1" vertex="1">
          <mxGeometry x="-10" y="60" width="70" height="70" as="geometry" />
        </mxCell>
        <mxCell id="IsEB4-VOODBlKY21gOqv-4" value="&lt;font style=&quot;font-size: 8px;&quot; color=&quot;#ff3333&quot;&gt;marmalade_policy-A-msg = {...}&lt;br&gt;&lt;/font&gt;" style="shape=internalStorage;whiteSpace=wrap;html=1;backgroundOutline=1;dx=10;dy=20;" parent="1" vertex="1">
          <mxGeometry x="210" y="160" width="140" height="10" as="geometry" />
        </mxCell>
        <mxCell id="IsEB4-VOODBlKY21gOqv-7" value="&lt;font style=&quot;font-size: 8px;&quot; color=&quot;#ff3333&quot;&gt;marmalade_policy-A-msg = {...}&lt;br&gt;&lt;/font&gt;" style="shape=internalStorage;whiteSpace=wrap;html=1;backgroundOutline=1;dx=10;dy=20;" parent="1" vertex="1">
          <mxGeometry x="40" y="140" width="140" height="10" as="geometry" />
        </mxCell>
        <mxCell id="IsEB4-VOODBlKY21gOqv-8" value="&lt;font style=&quot;font-size: 8px;&quot; color=&quot;#ff3333&quot;&gt;marmalade_policy-A-msg = {...}&lt;br&gt;&lt;/font&gt;" style="shape=internalStorage;whiteSpace=wrap;html=1;backgroundOutline=1;dx=10;dy=20;" parent="1" vertex="1">
          <mxGeometry x="240" y="200" width="140" height="10" as="geometry" />
        </mxCell>
        <mxCell id="IsEB4-VOODBlKY21gOqv-9" value="&lt;font style=&quot;font-size: 7px;&quot;&gt;Read message in transaction data&lt;br&gt;&lt;/font&gt;" style="shape=callout;whiteSpace=wrap;html=1;perimeter=calloutPerimeter;position2=0;" parent="1" vertex="1">
          <mxGeometry x="370" y="100" width="65" height="60" as="geometry" />
        </mxCell>
        <mxCell id="TvbK7awDwAVhztgvTPOD-9" value="" style="endArrow=classic;html=1;rounded=0;" parent="1" source="TvbK7awDwAVhztgvTPOD-8" edge="1">
          <mxGeometry width="50" height="50" relative="1" as="geometry">
            <mxPoint x="400" y="450" as="sourcePoint" />
            <mxPoint x="200" y="140" as="targetPoint" />
          </mxGeometry>
        </mxCell>
        <mxCell id="TvbK7awDwAVhztgvTPOD-31" value="(sale)" style="edgeLabel;html=1;align=center;verticalAlign=middle;resizable=0;points=[];" parent="TvbK7awDwAVhztgvTPOD-9" vertex="1" connectable="0">
          <mxGeometry x="-0.5636" y="-2" relative="1" as="geometry">
            <mxPoint x="51" y="-12" as="offset" />
          </mxGeometry>
        </mxCell>
      </root>
    </mxGraphModel>
  </diagram>
</mxfile>
